<svg width="216" height="216" viewBox="0 0 216 216" fill="none" xmlns="http://www.w3.org/2000/svg">
<path d="M104.915 12.5H103.807L107.011 3.77273H108.102L111.307 12.5H110.199L107.591 5.15341H107.523L104.915 12.5ZM105.324 9.09091H109.79V10.0284H105.324V9.09091Z" fill="black"/>
<path d="M119.832 5.33304L119.97 4.40577L126.444 5.36993L126.306 6.2972L123.591 5.89296L122.444 13.5978L121.399 13.4421L122.546 5.73729L119.832 5.33304Z" fill="black"/>
<path d="M156.12 16.54L156.584 15.7252L162.273 18.963L161.809 19.7777L159.424 18.4202L155.57 25.1902L154.652 24.6675L158.505 17.8975L156.12 16.54Z" fill="black"/>
<path d="M164.241 30.7405L169.628 23.8744L170.46 24.5267L168.061 27.5843L171.722 30.4567L174.121 27.3992L174.952 28.0515L169.565 34.9177L168.734 34.2653L171.143 31.1943L167.482 28.3219L165.073 31.3929L164.241 30.7405Z" fill="black"/>
<path d="M175.352 40.2309L181.692 34.2332L185.311 38.0593L184.63 38.7036L181.737 35.6451L179.595 37.6717L182.301 40.532L181.62 41.1763L178.914 38.316L176.759 40.3543L179.699 43.4623L179.018 44.1065L175.352 40.2309Z" fill="black"/>
<path d="M195.095 68.6747L203.174 65.3722L203.574 66.3504L199.976 67.8211L201.737 72.1284L205.335 70.6578L205.734 71.636L197.656 74.9385L197.256 73.9603L200.869 72.4832L199.109 68.1758L195.495 69.6529L195.095 68.6747Z" fill="black"/>
<path d="M200.057 82.4184L208.534 80.3419L209.787 85.4577L208.876 85.6808L207.875 81.5914L205.01 82.2931L205.947 86.1175L205.037 86.3406L204.1 82.5161L201.219 83.2218L202.237 87.3774L201.326 87.6004L200.057 82.4184Z" fill="black"/>
<path d="M202.808 96.1163L202.706 95.0131L211.691 97.3987L211.792 98.485L203.398 102.481L203.295 101.378L210.37 98.1032L210.364 98.0353L202.808 96.1163ZM206.24 96.2091L206.652 100.656L205.719 100.742L205.307 96.2956L206.24 96.2091Z" fill="black"/>
<path d="M203.516 110.353L212.23 110.837L212.067 113.781C212.029 114.462 211.882 115.014 211.625 115.438C211.371 115.862 211.037 116.168 210.622 116.356C210.208 116.543 209.744 116.623 209.23 116.594C208.717 116.566 208.268 116.435 207.882 116.203C207.497 115.972 207.203 115.632 207 115.186C206.8 114.739 206.718 114.179 206.756 113.503L206.888 111.121L207.841 111.174L207.711 113.522C207.685 113.987 207.732 114.366 207.853 114.657C207.973 114.951 208.154 115.169 208.397 115.31C208.642 115.455 208.939 115.537 209.288 115.556C209.637 115.575 209.946 115.527 210.214 115.411C210.482 115.295 210.695 115.098 210.853 114.819C211.013 114.541 211.107 114.166 211.133 113.695L211.236 111.84L203.458 111.408L203.516 110.353ZM207.203 114.672L203.17 116.599L203.238 115.374L207.269 113.481L207.203 114.672Z" fill="black"/>
<path d="M209.854 125.502L210.772 125.692L209.45 132.102L208.532 131.913L209.086 129.225L201.457 127.653L201.67 126.618L209.3 128.19L209.854 125.502Z" fill="black"/>
<path d="M190.066 165.006C189.292 164.507 188.714 163.936 188.331 163.293C187.947 162.651 187.76 161.987 187.769 161.303C187.777 160.619 187.983 159.964 188.387 159.339C188.79 158.713 189.302 158.255 189.921 157.965C190.541 157.676 191.223 157.573 191.966 157.657C192.71 157.741 193.469 158.032 194.242 158.531C195.016 159.03 195.594 159.601 195.977 160.244C196.36 160.887 196.548 161.55 196.539 162.234C196.531 162.918 196.325 163.573 195.921 164.199C195.518 164.824 195.006 165.282 194.386 165.572C193.767 165.862 193.085 165.964 192.341 165.88C191.598 165.796 190.839 165.505 190.066 165.006ZM190.62 164.146C191.255 164.556 191.86 164.795 192.434 164.865C193.006 164.937 193.521 164.864 193.978 164.649C194.433 164.435 194.804 164.107 195.09 163.663C195.377 163.219 195.524 162.744 195.532 162.239C195.539 161.736 195.392 161.237 195.092 160.743C194.791 160.251 194.323 159.8 193.688 159.391C193.053 158.981 192.449 158.74 191.877 158.669C191.303 158.599 190.788 158.671 190.333 158.885C189.876 159.101 189.504 159.43 189.217 159.874C188.931 160.318 188.785 160.792 188.778 161.295C188.77 161.8 188.916 162.299 189.218 162.791C189.518 163.285 189.985 163.737 190.62 164.146Z" fill="black"/>
<path d="M181.694 168.811L188.252 174.571L184.798 178.502L184.094 177.884L186.85 174.746L184.634 172.8L182.137 175.643L181.433 175.025L183.93 172.181L180.997 169.605L181.694 168.811Z" fill="black"/>
<path d="M152.806 192.34L155.194 191.095L159.228 198.835L156.734 200.135C155.983 200.526 155.26 200.706 154.564 200.674C153.87 200.645 153.23 200.417 152.645 199.988C152.061 199.562 151.56 198.948 151.142 198.147C150.722 197.341 150.504 196.572 150.488 195.841C150.473 195.111 150.659 194.448 151.045 193.849C151.433 193.253 152.02 192.75 152.806 192.34ZM154.69 192.415L153.299 193.14C152.659 193.474 152.193 193.873 151.901 194.34C151.609 194.806 151.479 195.321 151.51 195.884C151.541 196.448 151.721 197.045 152.049 197.675C152.375 198.299 152.757 198.784 153.196 199.129C153.637 199.476 154.123 199.664 154.654 199.695C155.187 199.728 155.756 199.587 156.361 199.272L157.857 198.492L154.69 192.415Z" fill="black"/>
<path d="M141.966 197.304L144.816 205.553L139.838 207.273L139.532 206.387L143.511 205.012L142.548 202.225L138.826 203.51L138.52 202.624L142.242 201.339L141.274 198.535L137.23 199.932L136.924 199.046L141.966 197.304Z" fill="black"/>
<path d="M124.952 208.644C125.082 209.059 125.347 209.351 125.749 209.518C126.15 209.686 126.61 209.721 127.13 209.624C127.51 209.553 127.83 209.43 128.092 209.254C128.351 209.078 128.54 208.868 128.659 208.623C128.776 208.379 128.808 208.12 128.757 207.846C128.714 207.617 128.623 207.43 128.483 207.286C128.341 207.145 128.173 207.036 127.98 206.96C127.787 206.886 127.589 206.832 127.386 206.798C127.184 206.766 126.999 206.744 126.832 206.732L125.917 206.66C125.682 206.643 125.419 206.609 125.126 206.557C124.83 206.505 124.54 206.413 124.255 206.282C123.968 206.153 123.716 205.966 123.5 205.721C123.283 205.475 123.138 205.151 123.062 204.749C122.976 204.285 123.019 203.844 123.192 203.424C123.362 203.005 123.658 202.642 124.081 202.335C124.5 202.028 125.04 201.813 125.699 201.69C126.313 201.575 126.863 201.575 127.35 201.689C127.834 201.804 128.238 202.014 128.561 202.321C128.881 202.628 129.102 203.013 129.223 203.476L128.151 203.676C128.062 203.358 127.903 203.11 127.674 202.933C127.442 202.76 127.17 202.649 126.857 202.6C126.542 202.555 126.215 202.564 125.874 202.628C125.477 202.702 125.133 202.833 124.842 203.02C124.551 203.211 124.335 203.439 124.194 203.705C124.053 203.974 124.012 204.265 124.071 204.578C124.124 204.863 124.247 205.079 124.44 205.228C124.632 205.377 124.869 205.483 125.149 205.547C125.43 205.61 125.729 205.655 126.046 205.682L127.158 205.787C127.864 205.854 128.446 206.03 128.904 206.314C129.362 206.599 129.645 207.03 129.753 207.608C129.843 208.088 129.791 208.531 129.598 208.937C129.403 209.347 129.103 209.692 128.699 209.973C128.293 210.257 127.816 210.45 127.269 210.552C126.716 210.655 126.206 210.648 125.739 210.53C125.272 210.415 124.881 210.211 124.566 209.917C124.248 209.624 124.042 209.262 123.947 208.832L124.952 208.644Z" fill="black"/>
<path d="M111.738 212.16L111.415 203.439L112.471 203.4L112.794 212.121L111.738 212.16Z" fill="black"/>
<path d="M94.2615 208.598C94.3229 208.893 94.4173 209.162 94.5446 209.405C94.6688 209.65 94.8264 209.865 95.0174 210.049C95.2056 210.233 95.4263 210.382 95.6794 210.496C95.9326 210.61 96.2159 210.685 96.5293 210.719C97.0432 210.777 97.5252 210.696 97.9755 210.477C98.4257 210.259 98.8038 209.905 99.1098 209.416C99.4158 208.927 99.6106 208.307 99.6942 207.556C99.7778 206.805 99.7228 206.157 99.529 205.612C99.3352 205.068 99.0386 204.639 98.6389 204.326C98.2393 204.012 97.7713 203.826 97.2348 203.766C96.7379 203.711 96.2885 203.768 95.8866 203.938C95.4815 204.11 95.1514 204.379 94.8963 204.745C94.638 205.114 94.4793 205.563 94.4202 206.094L94.1059 205.99L96.7147 206.281L96.611 207.213L93.3076 206.845L93.4113 205.913C93.4908 205.199 93.7124 204.595 94.0762 204.101C94.4371 203.606 94.9005 203.243 95.4665 203.012C96.0294 202.783 96.6553 202.707 97.3442 202.784C98.1122 202.869 98.7669 203.125 99.3083 203.551C99.8469 203.977 100.241 204.541 100.492 205.244C100.74 205.946 100.813 206.754 100.711 207.669C100.634 208.355 100.474 208.962 100.229 209.489C99.9817 210.019 99.6669 210.459 99.285 210.808C98.9031 211.157 98.4692 211.409 97.9832 211.563C97.4972 211.718 96.9761 211.764 96.4199 211.702C95.9625 211.651 95.5438 211.534 95.164 211.352C94.7809 211.172 94.4481 210.939 94.1655 210.654C93.8798 210.37 93.6518 210.043 93.4815 209.673C93.3109 209.305 93.2095 208.906 93.1773 208.477L94.2615 208.598Z" fill="black"/>
<path d="M78.456 207.997L80.6888 199.56L81.6775 199.822L84.5218 207.662L84.6042 207.684L86.3573 201.06L87.379 201.33L85.1461 209.767L84.1575 209.506L81.301 201.644L81.2187 201.622L79.4612 208.263L78.456 207.997Z" fill="black"/>
<path d="M50.055 193.574L49.504 194.332L44.2086 190.485L44.7596 189.726L46.9798 191.339L51.5585 185.037L52.4135 185.659L47.8348 191.961L50.055 193.574Z" fill="black"/>
<path d="M35.6004 176.868C36.2452 176.211 36.921 175.759 37.6279 175.514C38.3348 175.268 39.0224 175.219 39.6907 175.365C40.359 175.512 40.9587 175.846 41.4899 176.367C42.021 176.889 42.366 177.482 42.5248 178.148C42.6837 178.813 42.6468 179.501 42.4144 180.213C42.1819 180.924 41.7432 181.608 41.0984 182.265C40.4536 182.922 39.7777 183.373 39.0709 183.619C38.364 183.864 37.6764 183.914 37.0081 183.767C36.3398 183.621 35.74 183.287 35.2089 182.765C34.6777 182.244 34.3327 181.65 34.1739 180.985C34.0151 180.319 34.0519 179.631 34.2844 178.92C34.5169 178.208 34.9555 177.524 35.6004 176.868ZM36.3302 177.584C35.8008 178.123 35.4442 178.667 35.2604 179.215C35.0746 179.761 35.0413 180.28 35.1603 180.771C35.2773 181.26 35.5244 181.69 35.9015 182.06C36.2785 182.43 36.7137 182.67 37.2069 182.78C37.698 182.888 38.2159 182.845 38.7606 182.651C39.3032 182.455 39.8392 182.088 40.3686 181.548C40.898 181.009 41.2555 180.466 41.4413 179.92C41.6251 179.372 41.6585 178.854 41.5415 178.365C41.4224 177.873 41.1744 177.443 40.7973 177.073C40.4202 176.702 39.9861 176.463 39.4949 176.355C39.0017 176.245 38.4838 176.288 37.9412 176.484C37.3966 176.678 36.8596 177.045 36.3302 177.584Z" fill="black"/>
<path d="M22.211 150.061L14.2602 153.66L13.0443 150.974C12.7619 150.35 12.6437 149.789 12.6897 149.291C12.7318 148.792 12.8998 148.36 13.1936 147.997C13.4873 147.633 13.8685 147.345 14.3369 147.133C14.8054 146.921 15.2744 146.824 15.7442 146.842C16.2127 146.858 16.6505 147.012 17.0575 147.305C17.4619 147.599 17.8041 148.055 18.0841 148.674L18.9557 150.599L18.1016 150.986L17.2441 149.091C17.0508 148.664 16.8218 148.355 16.5571 148.163C16.2924 147.971 16.0082 147.873 15.7045 147.87C15.3969 147.866 15.084 147.936 14.7657 148.08C14.4473 148.224 14.1896 148.413 13.9924 148.645C13.7941 148.875 13.6829 149.153 13.6589 149.479C13.6322 149.806 13.7168 150.186 13.9124 150.618L14.6785 152.311L21.7752 149.099L22.211 150.061Z" fill="black"/>
<path d="M16.9511 136.966L8.55698 139.354L7.74998 136.518C7.56339 135.862 7.52227 135.292 7.6266 134.807C7.7282 134.323 7.94424 133.925 8.27472 133.613C8.6052 133.3 9.01772 133.073 9.5123 132.933C10.0069 132.792 10.4742 132.768 10.9143 132.862C11.3544 132.955 11.7432 133.18 12.0807 133.535C12.4155 133.892 12.6754 134.396 12.8605 135.046L13.5135 137.341L12.5954 137.602L11.9517 135.34C11.8242 134.892 11.656 134.55 11.4471 134.314C11.2374 134.075 10.9949 133.929 10.7194 133.874C10.4405 133.818 10.1329 133.837 9.79685 133.933C9.46075 134.028 9.1849 134.175 8.96927 134.372C8.75365 134.569 8.61679 134.825 8.55869 135.14C8.49785 135.456 8.53197 135.84 8.66102 136.294L9.16948 138.081L16.6619 135.949L16.9511 136.966ZM12.0561 134.087L15.2391 130.949L15.575 132.129L12.3826 135.235L12.0561 134.087Z" fill="black"/>
<path d="M8.52953 117.49C9.44229 117.372 10.2525 117.434 10.9603 117.677C11.668 117.92 12.2395 118.306 12.6749 118.833C13.1103 119.361 13.3759 119.994 13.472 120.732C13.568 121.47 13.4731 122.15 13.1872 122.772C12.9014 123.393 12.4475 123.912 11.8255 124.328C11.2035 124.744 10.4362 125.012 9.52341 125.131C8.61064 125.249 7.80039 125.187 7.09266 124.944C6.38493 124.701 5.81339 124.315 5.37803 123.788C4.94267 123.26 4.67698 122.627 4.58097 121.889C4.48495 121.151 4.57986 120.471 4.8657 119.849C5.15154 119.228 5.60544 118.709 6.22742 118.293C6.84939 117.877 7.61676 117.609 8.52953 117.49ZM8.66146 118.505C7.91209 118.602 7.29594 118.81 6.81302 119.128C6.32972 119.443 5.98334 119.83 5.77386 120.29C5.56402 120.747 5.49318 121.237 5.56134 121.761C5.62951 122.285 5.82367 122.743 6.14382 123.134C6.4636 123.522 6.89758 123.808 7.44573 123.991C7.99353 124.172 8.64211 124.214 9.39147 124.116C10.1408 124.019 10.7572 123.813 11.2405 123.498C11.7234 123.18 12.0698 122.793 12.2796 122.336C12.4891 121.876 12.5598 121.384 12.4916 120.86C12.4234 120.336 12.2294 119.88 11.9097 119.492C11.5895 119.101 11.1555 118.815 10.6077 118.634C10.0596 118.45 9.41083 118.407 8.66146 118.505Z" fill="black"/>
<path d="M12.4619 109.178L3.73614 109.017L3.79252 105.966C3.80376 105.358 3.91812 104.859 4.13561 104.468C4.35025 104.077 4.63547 103.788 4.99125 103.601C5.34419 103.415 5.7337 103.325 6.15976 103.333C6.5347 103.34 6.84307 103.413 7.08488 103.551C7.32674 103.686 7.51669 103.863 7.65472 104.081C7.7928 104.297 7.89362 104.53 7.95717 104.781L8.04238 104.783C8.06436 104.516 8.16305 104.25 8.33847 103.983C8.51388 103.716 8.76233 103.495 9.08382 103.319C9.4053 103.143 9.79612 103.059 10.2563 103.068C10.6937 103.076 11.0853 103.183 11.431 103.388C11.7767 103.593 12.0478 103.912 12.2444 104.345C12.441 104.778 12.5329 105.338 12.5202 106.025L12.4619 109.178ZM11.5441 108.104L11.5829 106.008C11.5956 105.318 11.4712 104.825 11.2095 104.53C10.9451 104.233 10.6211 104.081 10.2377 104.073C9.94228 104.068 9.66821 104.138 9.41547 104.284C9.15989 104.43 8.95426 104.641 8.79857 104.916C8.64004 105.192 8.55726 105.52 8.55023 105.901L8.51054 108.048L11.5441 108.104ZM7.59024 108.031L7.62646 106.071C7.63234 105.753 7.57516 105.465 7.4549 105.207C7.3347 104.946 7.16238 104.738 6.93792 104.584C6.71352 104.426 6.44794 104.344 6.14118 104.339C5.75772 104.332 5.43002 104.459 5.15809 104.721C4.88331 104.983 4.74057 105.404 4.72986 105.983L4.69301 107.977L7.59024 108.031Z" fill="black"/>
<path d="M13.4134 94.5991L4.80651 93.1542L4.98147 92.112L12.6638 93.4016L13.3354 89.4008L14.2599 89.556L13.4134 94.5991Z" fill="black"/>
<path d="M16.2646 81.288L7.96448 78.5911L9.59208 73.5818L10.4837 73.8715L9.18267 77.8757L11.9872 78.7869L13.204 75.0421L14.0956 75.3319L12.8788 79.0766L15.6996 79.9932L17.0217 75.9241L17.9133 76.2139L16.2646 81.288Z" fill="black"/>
<path d="M12.7191 65.5192L13.2813 64.3901L21.0882 64.9642L21.1338 64.8726L15.9709 58.9886L16.5332 57.8595L24.3455 61.7496L23.9048 62.6345L17.9693 59.679L17.9313 59.7553L22.6512 65.1522L22.2257 66.0067L15.0745 65.4925L15.0365 65.5688L20.9721 68.5243L20.5314 69.4093L12.7191 65.5192Z" fill="black"/>
<path d="M40.6045 31.355C40.2758 31.0703 39.8967 30.9623 39.4672 31.0309C39.0377 31.0995 38.6277 31.3118 38.2372 31.6678C37.9516 31.9281 37.7439 32.2021 37.614 32.4896C37.4861 32.7753 37.4361 33.0535 37.4638 33.3243C37.4936 33.5931 37.6023 33.8304 37.7898 34.0362C37.9468 34.2083 38.1226 34.319 38.3174 34.3682C38.5124 34.4135 38.7123 34.4177 38.9171 34.3809C39.12 34.342 39.3168 34.2837 39.5074 34.2061C39.6961 34.1263 39.8646 34.0476 40.013 33.97L40.8288 33.5492C41.0369 33.4402 41.2793 33.3308 41.5559 33.2209C41.8345 33.1091 42.1296 33.0342 42.441 32.9964C42.7526 32.9545 43.0651 32.981 43.3785 33.0759C43.6918 33.1708 43.9863 33.3694 44.2619 33.6718C44.5796 34.0203 44.7754 34.4185 44.8492 34.8663C44.9251 35.3122 44.8644 35.777 44.6671 36.2605C44.4719 36.7422 44.1265 37.2088 43.6311 37.6605C43.1692 38.0816 42.7013 38.3717 42.2274 38.5307C41.7556 38.6879 41.3016 38.7212 40.8654 38.6307C40.4312 38.5382 40.0408 38.3271 39.6941 37.9973L40.5003 37.2624C40.7433 37.4868 41.0089 37.6137 41.2971 37.6431C41.5855 37.6685 41.8754 37.6196 42.1666 37.4963C42.4581 37.369 42.7318 37.1886 42.988 36.9551C43.2861 36.6833 43.5098 36.391 43.659 36.0782C43.8062 35.7632 43.8697 35.4555 43.8495 35.1549C43.8272 34.8522 43.709 34.5833 43.4946 34.3482C43.2994 34.134 43.0807 34.0143 42.8385 33.9891C42.5964 33.9638 42.3394 33.9982 42.0676 34.0922C41.7958 34.1862 41.5178 34.3051 41.2336 34.4488L40.2334 34.9455C39.5974 35.26 39.01 35.4168 38.4711 35.416C37.9322 35.4152 37.4647 35.1976 37.0685 34.763C36.7393 34.4019 36.5498 33.9979 36.5001 33.5512C36.4505 33.1005 36.5237 32.6494 36.7195 32.1979C36.9155 31.7425 37.2193 31.3272 37.6308 30.952C38.0465 30.5731 38.4839 30.3108 38.9431 30.1651C39.4004 30.0173 39.8403 29.9853 40.2627 30.0692C40.6873 30.1512 41.0531 30.3501 41.3603 30.666L40.6045 31.355Z" fill="black"/>
<path d="M55.1667 23.188C55.6798 23.9521 55.9853 24.7052 56.0831 25.4471C56.181 26.189 56.0907 26.8724 55.8123 27.4974C55.5339 28.1224 55.0857 28.6423 54.4678 29.0573C53.8499 29.4722 53.199 29.6903 52.5151 29.7115C51.8313 29.7327 51.1645 29.5577 50.5148 29.1864C49.8651 28.8151 49.2836 28.2473 48.7705 27.4832C48.2574 26.7191 47.9519 25.966 47.854 25.2241C47.7562 24.4822 47.8465 23.7988 48.1249 23.1738C48.4033 22.5488 48.8515 22.0289 49.4694 21.6139C50.0873 21.199 50.7382 20.9809 51.4221 20.9597C52.1059 20.9385 52.7727 21.1135 53.4224 21.4848C54.0721 21.8561 54.6535 22.4239 55.1667 23.188ZM54.3176 23.7582C53.8964 23.1308 53.4358 22.6718 52.9361 22.3812C52.4387 22.0889 51.9375 21.9515 51.4325 21.969C50.9299 21.9849 50.4592 22.1401 50.0205 22.4347C49.5819 22.7293 49.2589 23.107 49.0516 23.5678C48.8468 24.0271 48.7843 24.543 48.8642 25.1155C48.9465 25.6865 49.1983 26.2857 49.6195 26.913C50.0408 27.5404 50.5002 28.0002 50.9975 28.2924C51.4973 28.5831 51.9985 28.7205 52.5011 28.7046C53.0061 28.6871 53.478 28.5311 53.9166 28.2365C54.3553 27.9419 54.6771 27.565 54.882 27.1058C55.0893 26.6449 55.1517 26.129 55.0695 25.558C54.9895 24.9855 54.7389 24.3855 54.3176 23.7582Z" fill="black"/>
<path d="M64.8122 22.7883L61.0671 14.9054L62.0217 14.4519L65.3645 21.488L69.0288 19.7471L69.4311 20.5939L64.8122 22.7883Z" fill="black"/>
<path d="M74.6779 9.19477L79.2971 15.4676L79.3949 15.4378L79.7327 7.65504L80.7926 7.3322L80.2701 16.6145L79.2265 16.9324L73.618 9.51762L74.6779 9.19477Z" fill="black"/>
<path d="M91.0216 13.9753L89.7361 5.3432L94.9457 4.56735L95.0838 5.49463L90.9195 6.1148L91.3538 9.0315L95.2484 8.4515L95.3865 9.37877L91.4919 9.95877L91.9288 12.8923L96.1605 12.2621L96.2986 13.1894L91.0216 13.9753Z" fill="black"/>
</svg>
