<svg width="702" height="366" viewBox="0 0 702 366" fill="none" xmlns="http://www.w3.org/2000/svg">
<path d="M53.2589 324.195L67.0414 326.36L65.9662 363.064L65.4864 363.05C65.4252 362.408 65.364 361.766 65.2205 361.201C64.8581 359.91 64.0113 358.765 62.6636 358.325C60.4433 357.62 56.372 357.261 52.1339 357.136L27.6644 356.42C23.3462 356.293 19.2609 356.414 16.9209 357.065C15.4674 357.503 14.8066 358.204 14.287 359.549C14.026 360.262 13.9226 361.059 13.8286 361.537L13.4288 361.525L13.916 344.892L14.3158 344.904C14.3818 345.386 14.4383 346.188 14.7324 347.077C15.0265 347.966 15.7157 349.027 17.141 349.549C19.4366 350.416 23.5102 350.696 27.8283 350.822L55.8963 351.644C58.935 351.733 60.7812 351.547 61.9101 351.26C63.039 350.973 63.8598 350.277 64.276 349.729C65.1084 348.633 65.3975 346.961 65.4373 345.601L65.6318 338.964C65.7747 334.086 64.1586 331.878 62.5286 330.149C59.8094 327.348 56.1002 325.559 53.2449 324.675L53.2589 324.195Z" fill="#51733F"/>
<path d="M51.5219 306.402C57.0992 307.481 62.5867 307.243 65.8723 305.229C68.2437 303.784 69.597 301.669 70.0757 298.992C71.2443 292.456 67.7067 289.06 62.5122 286.75L62.9033 285.926C69.8668 288.796 72.9794 293.66 71.8953 299.724C71.0928 304.212 69.3651 307.967 65.365 310.34C61.4578 312.648 57.4159 312.982 52.3758 312.081C42.3744 310.293 35.9067 303.285 37.4836 294.465C39.1168 285.33 46.0787 282.755 51.5125 283.727C52.2213 283.853 53.4813 284.079 54.4122 284.326L50.4982 306.219L51.5219 306.402ZM39.3894 300.17C40.9499 302.806 44.125 304.592 49.5672 305.972L52.003 292.348C52.4676 289.749 52.0796 289.192 48.772 288.6C44.9132 287.911 42.4182 288.683 40.9694 289.969C39.6135 291.189 38.8088 292.508 38.4427 294.555C38.0767 296.603 38.3829 298.527 39.3894 300.17Z" fill="#51733F"/>
<path d="M76.6148 260.464L76.9351 260.225C78.9775 262.074 80.3715 265.567 79.3366 269.098C78.4818 272.016 77.3501 273.601 75.8161 274.569C74.5031 275.351 73.0405 275.506 70.5071 274.764C68.9716 274.314 49.2321 268.279 45.4927 267.1C45.1328 268.329 44.3268 270.51 43.9351 271.562L43.628 271.472C44.2472 267.652 42.578 264.245 34.8305 259.391L34.943 259.007L45.8445 262.201L48.2742 253.91L49.349 254.225L46.9193 262.516L72.7014 270.405C75.4652 271.215 77.0627 270.599 78.0751 267.145C78.75 264.842 78.3052 262.377 76.6148 260.464Z" fill="#51733F"/>
<path d="M38.4641 230.409C39.8854 230.948 41.3429 231.842 43.4454 233.067L49.2573 236.468L49.0022 237.141L42.3679 235.91C40.0567 235.461 38.2976 235.137 36.8762 234.598C34.1084 233.549 34.6574 231.875 34.8275 231.426C34.9977 230.977 35.6963 229.36 38.4641 230.409Z" fill="#51733F"/>
<path d="M91.244 213.725C97.4395 216.716 98.0898 222.361 95.5852 227.548C94.3329 230.141 92.0794 232.784 89.4136 234.073L89.2745 234.361L90.3126 236.995L90.1039 237.427L80.2343 232.661L80.3735 232.373C87.1951 234.068 92.3204 232.101 94.6859 227.202C96.4252 223.6 96.2044 220.562 91.954 218.509C88.2799 216.735 85.6862 218.059 80.6303 222.458C75.716 226.748 71.9447 228.303 67.0459 225.938C62.9396 223.955 61.0122 219.115 63.6908 213.568C65.0475 210.758 66.6724 209.233 68.5555 208.277L68.6599 208.061L68.054 205.636L68.0887 205.564L76.1896 209.209L76.0505 209.497C70.8485 208.496 66.8164 209.303 64.5553 213.985C63.1638 216.867 63.7796 220.007 67.0215 221.573C71.1278 223.556 74.0669 221.332 78.0272 217.914C83.0135 213.659 86.4172 211.394 91.244 213.725Z" fill="#51733F"/>
<path d="M119.847 169.698C125.412 173.742 125.05 179.413 121.664 184.072C119.971 186.402 117.284 188.603 114.432 189.398L114.244 189.657L114.798 192.433L114.516 192.821L105.649 186.379L105.837 186.12C112.249 188.999 117.643 187.974 120.84 183.573C123.192 180.337 123.514 177.308 119.696 174.533C116.395 172.135 113.607 172.977 107.851 176.408C102.253 179.757 98.2651 180.618 93.8643 177.42C90.1753 174.739 89.138 169.634 92.7591 164.651C94.5932 162.127 96.463 160.915 98.4861 160.308L98.6272 160.114L98.4614 157.62L98.5085 157.555L105.833 162.581L105.645 162.84C100.704 160.931 96.5925 161.009 93.5357 165.215C91.6547 167.804 91.703 171.004 94.6154 173.12C98.3043 175.801 101.592 174.135 106.096 171.474C111.759 168.172 115.51 166.547 119.847 169.698Z" fill="#51733F"/>
<path d="M123.267 151.674C127.381 155.592 132.129 158.352 135.982 158.43C138.758 158.493 141.039 157.442 142.887 155.446C147.397 150.573 146.251 145.806 143.124 141.058L143.898 140.575C148.212 146.749 148.208 152.523 144.024 157.044C140.926 160.39 137.446 162.619 132.797 162.459C128.262 162.294 124.679 160.394 120.922 156.916C113.466 150.015 111.801 140.625 117.888 134.05C124.192 127.239 131.443 128.828 135.494 132.578C136.022 133.067 136.961 133.936 137.612 134.647L122.504 150.968L123.267 151.674ZM116.415 139.881C116.306 142.942 118.016 146.159 121.854 150.257L131.255 140.101C133.049 138.163 133.022 137.485 130.557 135.202C127.68 132.539 125.162 131.844 123.249 132.144C121.449 132.44 120.06 133.117 118.647 134.643C117.234 136.169 116.454 137.954 116.415 139.881Z" fill="#51733F"/>
<path d="M150.421 124.37C154.006 128.777 158.366 132.117 162.178 132.682C164.924 133.096 167.319 132.343 169.405 130.597C174.497 126.335 173.963 121.46 171.463 116.355L172.292 115.974C175.789 122.645 175.054 128.372 170.331 132.326C166.834 135.253 163.099 137.023 158.509 136.275C154.031 135.537 150.717 133.199 147.431 129.273C140.909 121.482 140.448 111.957 147.319 106.206C154.435 100.249 161.426 102.743 164.969 106.976C165.431 107.528 166.253 108.51 166.808 109.297L149.754 123.573L150.421 124.37ZM145.118 111.803C144.623 114.826 145.911 118.234 149.199 122.785L159.811 113.902C161.836 112.207 161.896 111.531 159.739 108.954C157.223 105.949 154.814 104.94 152.878 104.995C151.055 105.061 149.591 105.556 147.996 106.891C146.401 108.226 145.401 109.898 145.118 111.803Z" fill="#51733F"/>
<path d="M232.942 91.6627L220.585 98.242L220.434 97.9596C221.103 97.513 221.56 97.1792 222.045 96.5584C222.911 95.4625 223.11 94.8133 222.706 93.0341C222.382 91.5751 221.067 89.1035 220.052 87.1969L213.999 75.8278C212.119 72.297 210.906 71.0397 209.527 70.3234C207.716 69.475 205.965 69.5914 203.988 70.6441C199.751 72.8998 198.265 77.7694 199.269 82.0383C199.795 84.3869 200.969 86.9337 202.323 89.4758L205.293 95.0545C206.308 96.9611 207.478 99.329 208.729 100.657C209.98 101.985 210.624 102.004 212.088 101.859C212.695 101.808 213.406 101.611 214.079 101.343L214.229 101.626L201.801 108.243L201.651 107.96C202.107 107.626 202.423 107.368 202.946 106.817C203.92 105.755 204.547 105.059 203.889 103.143C203.424 101.759 202.367 99.6029 201.427 97.8375L183.908 64.9307C183.306 63.8009 182.479 62.2473 181.628 61.1596C180.852 60.2132 180.203 60.0151 179.163 59.9343C178.015 59.8205 176.843 60.1726 175.92 60.4826L175.732 60.1295L183.994 55.7308C184.277 55.5804 184.493 55.6464 184.756 56.1407C185.583 57.6943 187.731 61.8982 189.16 64.5816L198.07 81.3174L198.141 81.2799C197.541 77.43 198.828 74.5698 199.926 72.7164C200.92 71.0089 202.874 69.0621 205.063 67.8966C207.747 66.468 210.025 65.9802 212.156 66.7488C213.962 67.4184 215.641 68.6996 217.634 72.4422L224.589 85.5061C225.529 87.2715 226.615 89.1405 227.612 90.3318C228.754 91.6268 229.403 91.8249 230.905 91.7507C231.512 91.6993 232.331 91.5352 232.792 91.3803L232.942 91.6627Z" fill="#51733F"/>
<path d="M264.548 61.9174C268.183 72.0871 263.315 81.0486 255.707 83.7684C248.099 86.4883 238.659 82.8963 234.996 72.6513C231.334 62.4062 236.46 53.6922 243.993 50.9993C251.601 48.2794 260.912 51.7477 264.548 61.9174ZM259.452 63.8239C257.432 58.1741 254.331 54.0152 250.978 52.2403C248.266 50.8312 246.296 51.0255 244.262 51.7526C242.228 52.4797 240.512 53.8579 239.426 56.2852C237.882 59.8104 237.964 64.7936 240.092 70.7448C242.138 76.4699 245.39 80.575 248.695 82.4521C251.181 83.942 253.479 83.7153 255.438 83.0151C257.472 82.288 259.193 81.1628 260.323 78.3803C261.613 74.8605 261.499 69.5491 259.452 63.8239Z" fill="#51733F"/>
<path d="M306.354 70.2623L294.845 49.0474L291.252 73.0677L289.758 73.3453L274.957 46.2326C273.977 44.4618 273.03 43.7427 272.077 43.4315C271.468 43.2192 270.873 43.0855 269.586 43.162L269.527 42.8474L282.269 40.4803L282.328 40.7949C280.926 41.1366 280.09 41.4546 279.627 42.0288C279.229 42.5097 279.159 43.0109 279.276 43.6401C279.437 44.5053 279.833 45.3267 280.72 47.0335L291.179 66.9787L291.257 66.9641L294.11 47.7193L291.602 42.9776C290.838 41.4922 289.876 40.6945 288.923 40.3833C287.877 40.008 287.061 39.9968 286.418 40.0351L286.359 39.7205L298.786 37.4118L298.845 37.7264C298.23 37.922 296.986 38.2344 296.43 38.7446C295.874 39.2548 295.74 39.8492 295.872 40.5571C296.12 41.8942 297.042 43.3504 298.188 45.5785L307.711 63.9889L307.789 63.9743L310.817 43.4766C311.194 41.1282 311.108 39.3539 310.919 38.3314C310.743 37.3876 310.361 36.6449 309.487 36.3191C308.706 36.0573 307.983 36.1101 307.261 36.163L307.202 35.8484L316.326 34.1534L316.385 34.468C315.77 34.6636 315.077 34.8738 314.442 35.3985C313.807 35.9233 313.438 36.5616 313.176 37.3425C312.801 38.3886 312.385 40.0932 311.938 42.9428L307.848 69.9847L306.354 70.2623Z" fill="#51733F"/>
<path d="M401.632 69.5969L387.679 68.4446L387.706 68.1257C388.27 68.0921 388.994 68.0716 389.984 67.752C390.728 67.4923 391.631 67.2458 392.274 65.2921C392.898 63.5776 393.022 61.0994 393.206 58.867L394.266 46.0307C394.602 41.9646 394.422 40.2639 393.656 38.8361C392.592 37.1428 391.21 36.3865 388.977 36.2021C384.991 35.8729 381.332 38.3803 379.462 43.5238C378.939 45.0057 378.609 48.0288 378.306 51.6964L377.799 57.8355C377.608 60.1476 377.324 62.6126 377.677 64.1669C378.024 65.801 378.549 66.2458 379.467 66.8031C380.231 67.2676 381.248 67.5924 381.799 67.7182L381.779 67.9574L367.508 66.7788L367.534 66.4599C368.099 66.4263 368.989 66.3392 369.733 66.0796C370.643 65.7534 371.38 65.5734 372.023 63.6197C372.646 61.9052 372.851 59.4336 373.035 57.2012L374.095 44.3649C374.431 40.2988 374.17 38.5915 373.326 37.1571C372.481 35.7227 371.198 34.7338 368.647 34.5231C364.102 34.1478 360.962 37.1796 359.391 41.6254C358.555 43.9646 358.405 46.7617 358.135 50.0305L357.647 55.9304C357.463 58.1628 357.086 60.7807 357.42 62.5743C357.753 64.3678 358.684 64.7657 359.142 65.0444C359.907 65.5089 360.923 65.8337 361.555 65.9661L361.528 66.285L347.496 65.1262L347.516 64.887C348.001 64.8467 348.811 64.7531 349.555 64.4935C350.797 64.0341 351.388 63.6816 351.938 61.8808C352.482 60.1596 352.64 58.2462 352.811 56.1732L354.003 41.7423C354.121 40.3072 354.325 36.8723 354.264 35.6632C354.216 34.2947 353.711 33.6107 353.106 33.1594C352.348 32.6152 351.398 32.4565 350.687 32.3175L350.72 31.9188L359.251 32.6234C359.65 32.6563 359.71 32.9021 359.69 33.1412C359.723 32.7426 358.964 39.9847 358.964 39.9847L359.124 39.9979C360.669 36.8344 362.15 35.4315 364.009 34.3007C365.702 33.2364 368.001 32.6235 370.791 32.8539C374.14 33.1305 376.526 34.3711 377.81 36.3233C378.521 37.4257 379.154 39.4847 379.023 42.0426L379.182 42.0558C380.947 38.1879 382.992 36.7513 384.838 35.78C386.771 34.7355 388.89 34.3486 390.883 34.5132C395.348 34.8819 396.91 36.3756 397.854 37.5774C398.945 38.9518 399.498 41.0043 399.155 45.1501L397.937 59.8999C397.766 61.9729 397.588 64.1255 397.862 65.6733C398.202 67.3871 398.714 67.9913 399.631 68.5487C400.475 69.0198 401.18 69.2385 401.652 69.3577L401.632 69.5969Z" fill="#51733F"/>
<path d="M436.213 78.1776C434.91 78.7524 432.291 78.66 430.431 78.1838C429.578 77.9655 428.901 77.7095 428.34 77.3182C427.219 76.5358 426.954 75.3119 427.669 72.5219L427.514 72.4822C425.738 74.2573 422.913 76.2592 418.263 75.0688C413.613 73.8784 410.452 70.0963 411.762 64.9813C412.218 63.1987 413.042 61.5929 414.794 60.5551C418.007 58.6523 421.397 59.6028 425.184 59.0032C429.301 58.4056 432.32 56.2883 432.856 54.1958C432.975 53.7308 433.786 50.8831 434.084 49.7206C435.116 45.6905 433.961 44.0736 430.473 43.1807C429.311 42.8831 428.108 42.7405 427.04 43.0449C425.349 43.5205 424.294 44.7369 423.798 46.6744C423.223 48.9219 421.979 49.2642 420.274 48.8277C419.112 48.5301 418.283 47.5746 418.699 45.9471C419.017 44.7071 419.7 43.9736 420.713 43.242C422.856 41.6437 427.649 41.6319 430.362 42.3264C434.702 43.4374 439.825 46.6485 438.615 51.376C437.96 53.9335 434.258 67.1068 433.146 71.4468C432.333 74.6243 432.189 76.1564 432.63 77.0126C432.918 77.4993 433.441 77.7157 433.906 77.8347C434.603 78.0133 435.593 78.0189 436.292 77.8676L436.213 78.1776ZM431.927 57.1786C429.841 58.8743 426.869 59.5172 425.043 59.8756C422.265 60.4032 420.457 61.0139 419.522 61.7653C418.372 62.7096 417.452 64.0432 416.917 66.1357C415.885 70.1658 417.305 73.0067 420.87 73.9193C423.505 74.5939 427.822 72.8914 429.012 68.2414L431.927 57.1786Z" fill="#51733F"/>
<path d="M482.016 60.9334C480.616 60.5608 479.473 60.6313 478.234 61.609C477.393 62.2263 476.027 63.7549 474.146 65.9422C458.938 83.2045 458.424 83.8632 450.749 92.1236C449.147 93.818 448.397 94.6424 445.92 96.5978C443.783 98.3419 441.38 98.7812 438.845 97.7956C436.832 97.0129 435.862 95.091 436.558 93.3015C437.08 91.9594 438.277 91.3089 439.545 91.8017C440.514 92.1786 441.04 92.8123 441.38 94.146C441.703 95.3017 442.035 95.7739 443.004 96.1507C444.644 96.7884 446.972 94.7751 449.78 91.7468L453.897 87.339C455.367 85.7648 455.686 84.9446 455.707 84.0085L456.326 60.5592C456.371 57.5726 456.35 55.4186 456.279 54.2754C456.192 52.954 456.064 51.9599 455.223 51.0321C454.742 50.502 454.129 50.0919 453.562 49.7855L453.649 49.5618L465.728 54.2578L465.612 54.5561C464.763 54.3118 463.914 54.0675 463.143 54.2829C462.551 54.4818 461.946 54.9334 461.598 55.8282C461.221 56.7975 461.101 58.21 460.994 60.9149L460.333 80.0563L460.408 80.0853L472.986 65.8346C474.647 63.9912 475.422 62.6614 475.856 61.543C476.291 60.4245 476.03 59.5505 475.43 58.8878C474.949 58.3577 474.381 58.0512 473.814 57.7447L473.93 57.4465L482.132 60.6352L482.016 60.9334Z" fill="#51733F"/>
<path d="M506.047 111.817L491.879 103.244L492.086 102.902C492.607 103.123 493.415 103.332 493.977 103.485C495.28 103.805 496.405 103.645 497.52 102.73C499.598 100.995 502.303 96.8346 504.912 92.5226L515.556 74.9322C518.248 70.4833 520.83 66.0614 521.293 63.4426C521.559 61.9207 521.096 60.986 520.345 60.064C519.99 59.5687 519.32 58.9763 518.882 58.6179L519.09 58.2757L533.258 66.8488L533.051 67.1911C532.352 66.9552 531.763 66.6923 530.913 66.5519C529.884 66.3972 528.732 66.4477 527.658 67.2944C525.58 69.029 522.902 73.2996 520.21 77.7485L509.566 95.3389C506.957 99.6509 504.168 104.415 503.802 106.719C503.592 107.994 503.972 109.065 504.628 109.836C505.283 110.607 505.748 111.075 506.254 111.475L506.047 111.817Z" fill="#51733F"/>
<path d="M555.217 151.323L544.812 141.956L545.026 141.718C545.674 142.194 546.144 142.509 546.893 142.753C548.219 143.193 548.897 143.157 550.431 142.171C551.692 141.368 553.566 139.287 555.011 137.682L563.629 128.11C566.305 125.137 567.072 123.567 567.275 122.027C567.454 120.035 566.746 118.43 565.082 116.931C561.514 113.719 556.43 113.986 552.761 116.388C550.733 117.684 548.741 119.657 546.814 121.798L542.585 126.495C541.14 128.1 539.314 130.008 538.493 131.638C537.672 133.267 537.874 133.879 538.51 135.205C538.766 135.758 539.194 136.359 539.675 136.9L539.461 137.138L528.997 127.717L529.211 127.479C529.681 127.795 530.032 128.003 530.728 128.306C532.059 128.859 532.927 129.21 534.504 127.938C535.645 127.029 537.311 125.299 538.649 123.812L563.593 96.1065C564.449 95.1552 565.627 93.8472 566.358 92.6759C566.983 91.6235 566.947 90.9457 566.668 89.9407C566.383 88.8227 565.652 87.8414 565.045 87.0802L565.313 86.7829L572.269 93.0456C572.507 93.2598 572.519 93.4857 572.144 93.9019C570.966 95.2099 567.749 98.6642 565.715 100.923L553.029 115.014L553.088 115.068C556.502 113.189 559.629 113.422 561.746 113.82C563.691 114.172 566.188 115.343 568.031 117.003C570.29 119.037 571.527 121.011 571.532 123.277C571.52 125.203 570.889 127.219 568.052 130.37L558.15 141.369C556.812 142.856 555.426 144.514 554.647 145.858C553.82 147.374 553.855 148.052 554.438 149.438C554.693 149.991 555.127 150.704 555.431 151.085L555.217 151.323Z" fill="#51733F"/>
<path d="M578.264 150.008C573.863 153.601 570.531 157.967 569.973 161.78C569.564 164.527 570.321 166.921 572.071 169.003C576.343 174.087 581.216 173.545 586.317 171.035L586.7 171.864C580.035 175.373 574.306 174.648 570.344 169.932C567.411 166.441 565.634 162.709 566.373 158.117C567.103 153.638 569.435 150.32 573.355 147.027C581.134 140.491 590.658 140.012 596.422 146.872C602.392 153.978 599.91 160.973 595.684 164.524C595.133 164.987 594.153 165.811 593.366 166.367L579.06 149.339L578.264 150.008ZM590.821 144.683C587.797 144.193 584.391 145.487 579.846 148.783L588.749 159.379C590.447 161.401 591.124 161.459 593.696 159.298C596.697 156.776 597.702 154.365 597.643 152.43C597.574 150.607 597.076 149.144 595.738 147.551C594.4 145.959 592.727 144.962 590.821 144.683Z" fill="#51733F"/>
<path d="M590.639 196.205L583.124 185.16L583.388 184.98C583.769 185.398 584.262 185.837 584.82 186.231C585.892 186.953 586.715 187.167 588.461 186.463C589.898 185.872 591.485 184.792 593.139 183.667L623.299 163.145C624.291 162.469 627.201 160.489 627.992 159.661C628.849 158.787 629.066 158.253 629.082 157.565C629.095 156.588 628.732 155.771 628.348 155.064L628.679 154.839L633.314 161.652C633.494 161.916 633.452 162.139 633.121 162.364C632.129 163.039 630.695 163.918 628.909 165.133L595.839 187.635C594.186 188.76 592.532 189.886 591.432 190.828C590.112 192.016 590.032 193.038 590.287 194.123C590.517 195.03 590.7 195.583 590.904 196.025L590.639 196.205Z" fill="#51733F"/>
<path d="M625.381 223.796C615.486 229.044 607.088 226.525 603.19 219.175C601.653 216.277 600.927 212.859 602.413 209.173L602.3 208.961L592.406 214.209C590.639 215.146 588.731 216.158 587.571 217.044C586.166 218.152 586.084 219.192 586.138 219.978C586.193 220.764 586.422 221.366 586.651 221.969L586.298 222.157L580.151 210.566L580.504 210.379C580.875 210.906 581.208 211.364 581.682 211.746C582.34 212.303 583.176 212.855 585.097 212.38C586.519 211.988 588.39 210.905 590.157 209.968L619.063 194.638C620.194 194.038 622.315 192.914 623.229 192.248C624.073 191.619 624.522 190.928 624.683 190.209C625.011 188.948 624.473 187.422 624.207 186.749L624.489 186.599L628.537 194.232C628.687 194.515 628.696 194.872 628.201 195.135L623.075 197.763L623.187 197.975C627.875 197.934 632.172 199.549 634.421 203.789C637.794 210.15 636.195 218.062 625.381 223.796ZM622.832 218.99C634.141 212.993 635.16 207.744 633.023 203.715C630.325 198.627 623.291 197.829 618.556 200.34L610.216 204.763C605.905 207.05 604.064 209.384 603.188 211.66C602.416 213.79 602.355 215.724 603.892 218.621C606.103 222.791 611.383 225.063 622.832 218.99Z" fill="#51733F"/>
<path d="M661.249 277.21C660.688 275.874 659.933 275.012 658.403 274.63C657.4 274.341 655.355 274.194 652.475 274.043C629.516 272.556 628.681 272.552 617.452 271.526C615.132 271.293 614.021 271.204 610.96 270.438C608.273 269.813 606.457 268.18 605.687 265.571C605.076 263.499 606.005 261.557 607.847 261.014C609.228 260.607 610.474 261.157 610.859 262.461C611.153 263.459 610.973 264.262 610.125 265.346C609.408 266.309 609.237 266.859 609.531 267.857C610.029 269.545 613.045 270.157 617.158 270.529L623.163 271.093C625.308 271.295 626.152 271.046 626.905 270.49L645.843 256.648C648.235 254.858 649.927 253.525 650.789 252.771C651.781 251.894 652.49 251.185 652.71 249.952C652.836 249.248 652.786 248.512 652.681 247.875L652.911 247.807L656.577 260.238L656.27 260.329C655.945 259.507 655.619 258.686 654.978 258.208C654.458 257.861 653.731 257.658 652.81 257.929C651.813 258.224 650.622 258.992 648.415 260.56L632.861 271.736L632.884 271.813L651.851 273.059C654.325 273.247 655.851 273.047 657.002 272.707C658.153 272.368 658.685 271.627 658.842 270.747C658.968 270.042 658.864 269.406 658.76 268.769L659.067 268.679L661.556 277.119L661.249 277.21Z" fill="#51733F"/>
<path d="M652.2 319.902C641.532 321.584 633.631 315.135 632.373 307.153C631.116 299.172 636.4 290.564 647.147 288.87C657.895 287.177 665.504 293.833 666.749 301.736C668.007 309.717 662.868 318.221 652.2 319.902ZM651.274 314.541C657.201 313.607 661.864 311.333 664.231 308.369C666.12 305.965 666.295 303.994 665.959 301.86C665.623 299.727 664.588 297.784 662.405 296.265C659.228 294.093 654.316 293.248 648.073 294.232C642.067 295.178 637.429 297.61 634.971 300.508C633.044 302.674 632.84 304.974 633.164 307.029C633.5 309.162 634.285 311.063 636.809 312.69C640.028 314.613 645.268 315.488 651.274 314.541Z" fill="#51733F"/>
<path d="M636.798 363.784C636.773 362.185 636.508 355.388 636.5 354.908C636.496 354.668 636.734 354.504 636.974 354.501C637.614 354.491 638.575 354.556 639.615 354.54L643.374 354.481L643.372 354.321C640.712 353.082 639.416 352.062 638.275 350.72C636.808 348.982 635.813 346.758 635.771 344.038C635.737 341.878 636.006 338.594 638.77 336.23C640.034 335.171 641.777 334.103 645.537 334.045L661.776 333.872C663.136 333.851 664.736 333.826 666.013 333.646C667.37 333.465 668.167 333.213 668.713 332.324C669.18 331.517 669.247 330.636 669.309 329.515L669.629 329.51L669.764 338.149C669.767 338.389 669.691 338.63 669.131 338.639C667.051 338.671 662.731 338.658 659.691 338.705L645.133 338.932C642.493 338.973 640.582 339.563 639.318 340.622C637.66 342.008 637.041 343.378 637.078 345.778C637.139 349.697 640.54 352.285 644.162 353.669C645.852 354.282 649.372 354.308 651.692 354.272L661.611 354.117C662.811 354.099 665.211 354.061 666.328 353.884C667.605 353.704 668.321 353.453 668.948 352.563C669.495 351.754 669.634 350.392 669.704 349.751L669.944 349.747L670.077 358.306C670.081 358.546 670.006 358.867 669.446 358.876C667.366 358.908 662.885 358.898 659.846 358.945L644.968 359.177C643.688 359.197 641.928 359.224 640.571 359.405C639.293 359.585 638.26 360.001 637.715 360.97C637.247 361.777 637.185 362.898 637.118 363.779L636.798 363.784Z" fill="#51733F"/>
</svg>
